<svg version="1.1" id="Layer_1" xmlns="http://www.w3.org/2000/svg" xmlns:xlink="http://www.w3.org/1999/xlink" x="0px" y="0px"
	 width="100%" viewBox="0 0 397 401" enable-background="new 0 0 397 401" xml:space="preserve">
<path fill="#FEFEFE" opacity="1.000000" stroke="none" 
	d="
M239.000000,402.000000 
	C159.333328,402.000000 80.166664,402.000000 1.000000,402.000000 
	C1.000000,268.333344 1.000000,134.666672 1.000000,1.000000 
	C133.333328,1.000000 265.666656,1.000000 398.000000,1.000000 
	C398.000000,134.666672 398.000000,268.333344 398.000000,402.000000 
	C345.166656,402.000000 292.333344,402.000000 239.000000,402.000000 
M339.069153,332.573364 
	C350.560883,320.783691 358.684052,307.105804 362.596741,291.007446 
	C371.077423,256.114380 356.666290,220.369156 325.914825,203.116440 
	C314.971191,196.976639 302.630066,193.327698 291.411987,188.740097 
	C294.830017,187.283508 299.272949,185.537598 303.591614,183.524902 
	C325.232758,173.439377 341.349548,157.886688 348.604156,134.822235 
	C359.823120,99.154060 344.206940,63.374748 310.677338,45.330978 
	C288.265930,33.270386 263.816406,30.397234 239.158676,30.190977 
	C174.173965,29.647392 109.181839,29.990408 44.192661,29.993544 
	C42.778221,29.993612 41.363789,30.151844 40.234489,30.219271 
	C40.234489,46.009354 40.234489,61.261723 40.234489,77.010712 
	C47.542130,77.010712 54.523857,76.785172 61.485661,77.061478 
	C73.081917,77.521713 78.112846,82.350487 79.142143,93.669182 
	C79.503532,97.643211 79.724396,101.645119 79.726677,105.634460 
	C79.762360,167.957428 79.763107,230.280411 79.724869,292.603363 
	C79.722420,296.591675 79.466270,300.591766 79.101578,304.565582 
	C78.127907,315.175110 74.250359,319.389984 63.480701,320.205200 
	C55.759651,320.789612 47.958733,320.318878 40.228203,320.318878 
	C40.228203,336.694550 40.228203,351.923584 40.228203,367.350891 
	C42.053692,367.350891 43.544830,367.350922 45.035969,367.350861 
	C100.693382,367.348938 156.350937,367.275696 212.008148,367.380981 
	C233.676636,367.421967 255.262527,366.875397 276.664246,362.966980 
	C300.083160,358.690155 321.181946,349.765594 339.069153,332.573364 
z"/>
<path fill="#010101" opacity="1.000000" stroke="none" 
	d="
M338.818390,332.822723 
	C321.181946,349.765594 300.083160,358.690155 276.664246,362.966980 
	C255.262527,366.875397 233.676636,367.421967 212.008148,367.380981 
	C156.350937,367.275696 100.693382,367.348938 45.035969,367.350861 
	C43.544830,367.350922 42.053692,367.350891 40.228203,367.350891 
	C40.228203,351.923584 40.228203,336.694550 40.228203,320.318878 
	C47.958733,320.318878 55.759651,320.789612 63.480701,320.205200 
	C74.250359,319.389984 78.127907,315.175110 79.101578,304.565582 
	C79.466270,300.591766 79.722420,296.591675 79.724869,292.603363 
	C79.763107,230.280411 79.762360,167.957428 79.726677,105.634460 
	C79.724396,101.645119 79.503532,97.643211 79.142143,93.669182 
	C78.112846,82.350487 73.081917,77.521713 61.485661,77.061478 
	C54.523857,76.785172 47.542130,77.010712 40.234489,77.010712 
	C40.234489,61.261723 40.234489,46.009354 40.234489,30.219271 
	C41.363789,30.151844 42.778221,29.993612 44.192661,29.993544 
	C109.181839,29.990408 174.173965,29.647392 239.158676,30.190977 
	C263.816406,30.397234 288.265930,33.270386 310.677338,45.330978 
	C344.206940,63.374748 359.823120,99.154060 348.604156,134.822235 
	C341.349548,157.886688 325.232758,173.439377 303.591614,183.524902 
	C299.272949,185.537598 294.830017,187.283508 291.411987,188.740097 
	C302.630066,193.327698 314.971191,196.976639 325.914825,203.116440 
	C356.666290,220.369156 371.077423,256.114380 362.596741,291.007446 
	C358.684052,307.105804 350.560883,320.783691 338.818390,332.822723 
M170.619446,216.366928 
	C168.178986,216.366928 165.738525,216.366928 163.063950,216.366928 
	C163.063950,231.496399 162.974579,245.972076 163.089386,260.446136 
	C163.201569,274.586884 163.246307,288.737854 163.855286,302.861267 
	C164.217255,311.255981 166.515411,313.261444 175.048676,313.376526 
	C190.026474,313.578522 205.044495,313.968231 219.978226,313.108337 
	C229.317200,312.570587 238.911057,310.983246 247.722870,307.936096 
	C264.727417,302.055847 279.505341,283.650299 277.285706,258.159363 
	C275.924561,242.527145 268.675964,230.896378 254.400574,223.892502 
	C244.649399,219.108322 234.204025,217.316544 223.515701,217.056534 
	C206.211227,216.635605 188.897919,216.578033 170.619446,216.366928 
M189.500214,84.660629 
	C180.764221,84.660629 172.028244,84.660629 163.458588,84.660629 
	C163.458588,112.492668 163.458588,139.539169 163.458588,165.767944 
	C183.991516,165.767944 204.136932,166.118454 224.257843,165.569977 
	C230.928406,165.388138 237.754913,163.531723 244.133011,161.342331 
	C267.411560,153.351562 277.631500,127.976624 266.510620,106.109787 
	C259.382080,92.093025 246.416397,87.206215 231.930145,86.089211 
	C218.165298,85.027824 204.313705,85.091599 189.500214,84.660629 
z"/>
<path fill="#FDFDFD" opacity="1.000000" stroke="none" 
	d="
M171.103882,216.366974 
	C188.897919,216.578033 206.211227,216.635605 223.515701,217.056534 
	C234.204025,217.316544 244.649399,219.108322 254.400574,223.892502 
	C268.675964,230.896378 275.924561,242.527145 277.285706,258.159363 
	C279.505341,283.650299 264.727417,302.055847 247.722870,307.936096 
	C238.911057,310.983246 229.317200,312.570587 219.978226,313.108337 
	C205.044495,313.968231 190.026474,313.578522 175.048676,313.376526 
	C166.515411,313.261444 164.217255,311.255981 163.855286,302.861267 
	C163.246307,288.737854 163.201569,274.586884 163.089386,260.446136 
	C162.974579,245.972076 163.063950,231.496399 163.063950,216.366928 
	C165.738525,216.366928 168.178986,216.366928 171.103882,216.366974 
z"/>
<path fill="#FDFDFD" opacity="1.000000" stroke="none" 
	d="
M190.000229,84.660629 
	C204.313705,85.091599 218.165298,85.027824 231.930145,86.089211 
	C246.416397,87.206215 259.382080,92.093025 266.510620,106.109787 
	C277.631500,127.976624 267.411560,153.351562 244.133011,161.342331 
	C237.754913,163.531723 230.928406,165.388138 224.257843,165.569977 
	C204.136932,166.118454 183.991516,165.767944 163.458588,165.767944 
	C163.458588,139.539169 163.458588,112.492668 163.458588,84.660629 
	C172.028244,84.660629 180.764221,84.660629 190.000229,84.660629 
z"/>
</svg>